<svg xmlns="http://www.w3.org/2000/svg" height="48" viewBox="0 -960 960 960" width="48"><path d="M156.27-92.348q-27.252 0-46.087-18.99-18.835-18.99-18.835-46.119v-83.065L264.522-393.13v300.782H156.27Zm150.121 0v-172.609h347.218v172.609H306.391Zm389.087 0v-353.734L511-611.739l130.174-115.174 205.428 183.648q11.05 9.395 16.55 21.806 5.5 12.411 5.5 26.44v338.22q0 27.015-19.065 45.733-19.064 18.718-45.847 18.718H695.478ZM91.348-297.957V-495.4q0-13.112 5.218-26.574 5.217-13.461 16.782-21.33l323.217-287.913q8.875-7.435 20.187-11.435 11.311-4 23.162-4 11.85 0 23.186 4 11.335 4 20.335 11.435l86.304 76.869-518.39 456.391Z"/></svg>